<?xml version="1.0" encoding="UTF-8"?>
<!DOCTYPE svg PUBLIC "-//W3C//DTD SVG 1.1//EN" "http://www.w3.org/Graphics/SVG/1.1/DTD/svg11.dtd">
<!-- Creator: CorelDRAW -->
<svg xmlns="http://www.w3.org/2000/svg" xml:space="preserve" width="6.7733mm" height="2.7094mm" style="shape-rendering:geometricPrecision; text-rendering:geometricPrecision; image-rendering:optimizeQuality; fill-rule:evenodd; clip-rule:evenodd"
viewBox="0 0 0.299103 0.119645"
 xmlns:xlink="http://www.w3.org/1999/xlink">
 <defs>
  <style type="text/css">
   <![CDATA[
    .fil1 {fill:none}
    .fil0 {fill:#165CD7;fill-rule:nonzero}
   ]]>
  </style>
 </defs>
 <g id="图层_x0020_1">
  <metadata id="CorelCorpID_0Corel-Layer"/>
  <g id="_81603112">
   <path id="_219709848" class="fil0" d="M0.194159 0.0465526c0,0.00373587 -0.00145725,0.00687117 -0.00438059,0.0094059 -0.0027467,0.00236252 -0.00603656,0.00354156 -0.00985632,0.00354156 -0.00249058,0 -0.00495907,-0.000428344 -0.00740991,-0.00128503 -0.00249058,-0.000816944 -0.00384626,-0.00122321 -0.00405823,-0.00122321 -0.00137335,0 -0.00309114,0.000918511 -0.00515337,0.00276878l-0.0027732 -0.0150141 0.00206223 -0.000706547c0.00111723,0.0031353 0.00343558,0.0060763 0.00695948,0.008823 0.00347974,0.00275112 0.00682701,0.00412888 0.0100506,0.00412888 0.00189001,0 0.00343558,-0.000538742 0.00463671,-0.00161181 0.00116139,-0.00103332 0.00173987,-0.00247291 0.00173987,-0.00431877 0,-0.00347974 -0.00201807,-0.00605422 -0.00605422,-0.00773227 -0.00210198,-0.000856688 -0.00597032,-0.00244642 -0.0115962,-0.00476477 -0.00420837,-0.00167363 -0.00631476,-0.00539183 -0.00631476,-0.0111458 0,-0.00343558 0.00133361,-0.0061867 0.0039964,-0.00824893 0.00244642,-0.00192976 0.00543158,-0.00289684 0.00895548,-0.00289684 0.00214614,0 0.00438059,0.000362105 0.00669894,0.00109515 0.00236252,0.000688883 0.00373587,0.00102891 0.00412447,0.00102891 0.00111281,0 0.00261864,-0.000794865 0.00450865,-0.00238459l0.00251266 0.0132742 -0.00212847 0.000512246c-0.00107307,-0.00287476 -0.00311322,-0.0054095 -0.00612046,-0.00759979 -0.00300282,-0.00219029 -0.00601006,-0.00328544 -0.0090173,-0.00328544 -0.00420837,0 -0.00631476,0.00156765 -0.00631476,0.00470295 0,0.00244642 0.00210639,0.00459697 0.00631476,0.00644282l0.0120466 0.00534767c0.00438059,0.00270696 0.00657088,0.00642074 0.00657088,0.0111458zm-0.114381 0.0601359l0.0344751 0c0.00341792,0 0.0064914,-0.00121879 0.00869052,-0.00317504 0.00201807,-0.00180169 0.00327219,-0.00423045 0.00327219,-0.0068535l0 -0.0310792 -0.0451572 0c-0.00174429,0.00619553 -0.00353273,0.0120245 -0.00526819,0.0173457 -0.00622203,0.0190944 -0.0117287,0.0317151 -0.0117596,0.0317902l-0.00151024 0.00348857 -0.00375794 0 -0.0271976 0c-0.00633242,0 -0.0121173,-0.00233602 -0.0163389,-0.00609838 -0.00440708,-0.00392575 -0.00714054,-0.00939265 -0.00714054,-0.0154469l0 -0.0310792 -0.00808996 0 0 -0.00575835 0 -0.00575835 0.00808996 0 0 -0.0310792c0,-0.00605864 0.00273345,-0.0115211 0.00714054,-0.0154469 0.00422162,-0.00376236 0.0100065,-0.00609838 0.0163389,-0.00609838l0.0336404 0 0 0.00575835 0 0.00575835 -0.0336404 0c-0.00341792,0 -0.0064914,0.00121879 -0.00869052,0.00317504 -0.00201807,0.00179728 -0.00327219,0.00423045 -0.00327219,0.0068535l0 0.0310792 0.0308849 0 0 0.00562146 0 0.000136893 0 0.00575835 -0.0308849 0 0 0.0310792c0,0.00262305 0.00125412,0.00505181 0.00327219,0.0068535 0.00219913,0.00195625 0.0052726,0.00317504 0.00869052,0.00317504l0.0233911 0c0.00312205,-0.00764837 0.0106865,-0.0271711 0.016988,-0.0512644 0.003939,-0.0150539 0.00738783,-0.0318962 0.00895106,-0.0487429l0.000490167 -0.00524169 0.00522403 0 0.0276436 0c0.00632801,0 0.0121173,0.00233602 0.0163389,0.00609838 0.00440708,0.00392575 0.00714054,0.00938824 0.00714054,0.0154469l0 0.0310792 0.00808554 0 0 0.00562146 0 0.000136893 0 0.00575835 -0.00808554 0 0 0.0310792c0,0.00605422 -0.00273345,0.0115211 -0.00714054,0.0154469 -0.00422603,0.00376236 -0.0100109,0.00609838 -0.0163389,0.00609838l-0.0344751 0 0 -0.00576277 0 -0.000971502 0 -0.00478244zm0.0464378 -0.0526245l0 -0.0310792c0,-0.00262305 -0.00125412,-0.00505622 -0.00327219,-0.0068535 -0.00219913,-0.00195625 -0.0052726,-0.00317504 -0.00869052,-0.00317504l-0.0224726 0c-0.00162064,0.0141707 -0.00443358,0.0282 -0.00766161,0.0411078l0.0420969 0zm0.0404233 0.0454442l-0.00172662 -0.00454398 -0.00164272 0.00454398 0.00336934 0zm0.00298074 0.00401407l-0.00146608 0 -0.00113489 -0.00298516 -0.0041068 0 -0.0010819 0.00298516 -0.00137335 0 0.00376678 -0.00980333 0.00139985 0 0.0039964 0.00980333zm0.00460138 -0.00594382c-0.000176637,-5.2991e-005 -0.000437176,-8.39024e-005 -0.000768369,-8.39024e-005 -0.000640308,0 -0.0011923,0.000340026 -0.00165155,0.00101124l0 0.00501648 -0.00126295 0 0 -0.00709196 0.00126295 0 0 0.000984749c0.00052991,-0.000768369 0.00114814,-0.00114814 0.00184585,-0.00114814 0.000181053,0 0.000370937,1.76637e-005 0.000574069,5.2991e-005l0 0.00125854zm0.00375353 0.00610721c-0.00100683,0 -0.00181494,-0.000322362 -0.00241992,-0.000971502 -0.000604981,-0.00064914 -0.000905263,-0.00155882 -0.000905263,-0.00273787 0,-0.00117905 0.000300282,-0.00209756 0.000905263,-0.00274228 0.000604981,-0.000644724 0.00141309,-0.000967086 0.00241992,-0.000967086 0.000772785,0 0.00142193,0.0001943 0.001943,0.000587317 0.000516662,0.000393017 0.000825776,0.000958254 0.000918511,0.00169571l-0.00129828 0c-1.76637e-005,-0.000419512 -0.000176637,-0.000741874 -0.000476919,-0.000967086 -0.000300282,-0.000220796 -0.000662387,-0.000331194 -0.00108632,-0.000331194 -0.000604981,0 -0.00109073,0.000225212 -0.00146608,0.000680051 -0.000375353,0.000459255 -0.000560821,0.00113931 -0.000560821,0.00204457 0,0.000900847 0.000185468,0.0015809 0.000560821,0.00203574 0.000375353,0.000459255 0.000861104,0.000684467 0.00146608,0.000684467 0.000423928,0 0.000786033,-0.000110398 0.00108632,-0.00033561 0.000300282,-0.000220796 0.000459255,-0.000543158 0.000476919,-0.000958254l0.00129828 0c-9.27342e-005,0.000737458 -0.000401848,0.0013027 -0.000918511,0.00169571 -0.000521078,0.000393017 -0.00117022,0.000587317 -0.001943,0.000587317zm0.00523286 -0.00635892c0.00062706,-0.000706547 0.00133802,-0.00105982 0.00212406,-0.00105982 0.00159856,0 0.00239784,0.000869935 0.00239784,0.00261422l0 0.00464113 -0.00126295 0 0 -0.00458814c0,-0.000582901 -0.000105982,-0.000993581 -0.00031353,-0.00125412 -0.000203132,-0.000251707 -0.000543158,-0.000379769 -0.00101566,-0.000379769 -0.000644724,0 -0.00128503,0.000379769 -0.00192976,0.00113931l0 0.00508272 -0.00126295 0 0 -0.00980333 0.00126295 0 0 0.0036078zm0.00761746 0.00619553l-0.00126295 0 0 -0.00709196 0.00126295 0 0 0.00709196zm0 -0.00843882l-0.00126295 0 0 -0.00136452 0.00126295 0 0 0.00136452zm0.00461905 0.00845206c-0.000278203,4.85751e-005 -0.000578485,7.94865e-005 -0.000905263,7.94865e-005 -0.000516662,0 -0.000896431,-9.27342e-005 -0.00113489,-0.000278203 -0.000242875,-0.000185468 -0.000388601,-0.000423928 -0.000450423,-0.000715378 -5.74069e-005,-0.000287035 -8.83183e-005,-0.000680051 -8.83183e-005,-0.00117905l0 -0.00402732 -0.000869935 0 0 -0.000984749 0.000869935 0 0 -0.00176637 0.00125854 0 0 0.00176637 0.00115255 0 0 0.000984749 -0.00115255 0 0 0.00409355c0,0.000485751 6.18228e-005,0.000790449 0.000185468,0.000927342 0.00011923,0.000132477 0.00029145,0.0001943 0.000503414,0.0001943 0.000220796,0 0.000428344,-1.76637e-005 0.000631476,-5.2991e-005l0 0.000958254zm0.00406706 0.000150141c-0.00104657,0 -0.0018856,-0.000326778 -0.00251707,-0.000980333 -0.000631476,-0.00064914 -0.000949422,-0.00155882 -0.000949422,-0.00272904 0,-0.00115697 0.000304698,-0.00206223 0.000922926,-0.00272462 0.000609396,-0.000657972 0.00140868,-0.000984749 0.00240226,-0.000984749 0.00101124,0 0.00181936,0.000322362 0.00242434,0.000967086 0.000600565,0.000644724 0.000905263,0.00156323 0.000905263,0.00274228l0 0.000300282 -0.00534326 0c5.2991e-005,0.00082136 0.000278203,0.00143076 0.000680051,0.00182819 0.000397432,0.000393017 0.000887599,0.000591733 0.00147492,0.000591733 0.000437176,0 0.000834608,-0.000110398 0.00118788,-0.00033561 0.000357689,-0.000225212 0.000543158,-0.000543158 0.000560821,-0.000958254l0.0013027 0c-9.71502e-005,0.000728626 -0.000428344,0.00129386 -0.000993581,0.0016913 -0.000560821,0.000393017 -0.0012497,0.000591733 -0.00205782,0.000591733zm0.00185468 -0.00439825c-0.000101566,-0.000680051 -0.000331194,-0.0011923 -0.000688883,-0.00152791 -0.000357689,-0.000340026 -0.000790449,-0.00050783 -0.00130711,-0.00050783 -0.00050783,0 -0.000936174,0.000167805 -0.00129828,0.000503414 -0.000362105,0.00033561 -0.000591733,0.000847856 -0.000688883,0.00153232l0.00398316 0zm0.00562146 0.00439825c-0.00100683,0 -0.00181494,-0.000322362 -0.00241992,-0.000971502 -0.000604981,-0.00064914 -0.000905263,-0.00155882 -0.000905263,-0.00273787 0,-0.00117905 0.000300282,-0.00209756 0.000905263,-0.00274228 0.000604981,-0.000644724 0.00141309,-0.000967086 0.00241992,-0.000967086 0.000772785,0 0.00142193,0.0001943 0.001943,0.000587317 0.000516662,0.000393017 0.000825776,0.000958254 0.000918511,0.00169571l-0.00129828 0c-1.76637e-005,-0.000419512 -0.000176637,-0.000741874 -0.000476919,-0.000967086 -0.000304698,-0.000220796 -0.000662387,-0.000331194 -0.00108632,-0.000331194 -0.000604981,0 -0.00109073,0.000225212 -0.00146608,0.000680051 -0.000375353,0.000459255 -0.000560821,0.00113931 -0.000560821,0.00204457 0,0.000900847 0.000185468,0.0015809 0.000560821,0.00203574 0.000375353,0.000459255 0.000861104,0.000684467 0.00146608,0.000684467 0.000423928,0 0.000781617,-0.000110398 0.00108632,-0.00033561 0.000300282,-0.000220796 0.000459255,-0.000543158 0.000476919,-0.000958254l0.00129828 0c-9.27342e-005,0.000737458 -0.000401848,0.0013027 -0.000918511,0.00169571 -0.000521078,0.000393017 -0.00117022,0.000587317 -0.001943,0.000587317zm0.00672544 -0.000150141c-0.000278203,4.85751e-005 -0.000578485,7.94865e-005 -0.000900847,7.94865e-005 -0.000516662,0 -0.000896431,-9.27342e-005 -0.00113489,-0.000278203 -0.000242875,-0.000185468 -0.000393017,-0.000423928 -0.000450423,-0.000715378 -5.74069e-005,-0.000287035 -8.83183e-005,-0.000680051 -8.83183e-005,-0.00117905l0 -0.00402732 -0.000874351 0 0 -0.000984749 0.000874351 0 0 -0.00176637 0.00125854 0 0 0.00176637 0.00114814 0 0 0.000984749 -0.00114814 0 0 0.00409355c0,0.000485751 6.18228e-005,0.000790449 0.000185468,0.000927342 0.00011923,0.000132477 0.000287035,0.0001943 0.000503414,0.0001943 0.000220796,0 0.000428344,-1.76637e-005 0.00062706,-5.2991e-005l0 0.000958254zm-0.00427019 -0.020353l-0.00732159 0 0 -0.00981217 0.00709196 0 0 0.0011658 -0.00578927 0 0 0.00299399 0.00541391 0 0 0.0011658 -0.00541391 0 0 0.00332077 0.00601889 0 0 0.0011658zm0.00748056 0l-0.00156765 0 -0.00176637 -0.00276878 -0.00176637 0.00276878 -0.00156765 0 0.00262305 -0.00368729 -0.00241551 -0.0034135 0.00156765 0 0.00155882 0.00248174 0.00155882 -0.00248174 0.00156765 0 -0.00241551 0.00340026 0.00262305 0.00370054zm0.00389484 0.000167805c-0.00100683,0 -0.00181494,-0.000326778 -0.00241992,-0.000971502 -0.000604981,-0.00064914 -0.000909679,-0.00156765 -0.000909679,-0.0027467 0,-0.00117905 0.000304698,-0.00209314 0.000909679,-0.00274228 0.000604981,-0.000644724 0.00141309,-0.000971502 0.00241992,-0.000971502 0.000777201,0 0.00142634,0.000198716 0.001943,0.000591733 0.000521078,0.000393017 0.000825776,0.000958254 0.000918511,0.00170013l-0.00129386 0c-2.20796e-005,-0.000423928 -0.000176637,-0.000750706 -0.000481335,-0.000971502 -0.000300282,-0.000220796 -0.000662387,-0.00033561 -0.00108632,-0.00033561 -0.000604981,0 -0.00109515,0.000229628 -0.00146608,0.000684467 -0.000375353,0.000459255 -0.000565237,0.00114372 -0.000565237,0.00204457 0,0.000905263 0.000189884,0.00158531 0.000565237,0.00204015 0.000370937,0.000459255 0.000861104,0.000688883 0.00146608,0.000688883 0.000423928,0 0.000786033,-0.000114814 0.00108632,-0.000340026 0.000304698,-0.000220796 0.000459255,-0.000543158 0.000481335,-0.00096267l0.00129386 0c-9.27342e-005,0.000741874 -0.000397432,0.00131153 -0.000918511,0.00170013 -0.000516662,0.000393017 -0.0011658,0.000591733 -0.001943,0.000591733zm0.00523286 -0.00636775c0.00062706,-0.000706547 0.00133802,-0.00106424 0.00211964,-0.00106424 0.00160298,0 0.00240667,0.000874351 0.00240667,0.00261864l0 0.00464554 -0.00126737 0 0 -0.00459255c0,-0.000578485 -0.000101566,-0.000997997 -0.00031353,-0.0012497 -0.000203132,-0.000256123 -0.000543158,-0.000384185 -0.00101566,-0.000384185 -0.000644724,0 -0.00128945,0.000379769 -0.00192976,0.00113931l0 0.00508714 -0.00126737 0 0 -0.00981217 0.00126737 0 0 0.00361222zm0.0108499 0.00433201l0 -0.00157207 -0.00086552 0c-0.00182819,0 -0.00274228,0.000494583 -0.00274228,0.00149258 0,0.000362105 0.000132477,0.000640308 0.000401848,0.000830192 0.000264955,0.000198716 0.00062706,0.000295866 0.0010819,0.000295866 0.000415096,0 0.00082136,-9.71502e-005 0.00120996,-0.000282619 0.000388601,-0.000185468 0.000688883,-0.000441592 0.000914095,-0.000763953zm0 0.00113931c-0.000644724,0.000596149 -0.0014705,0.000896431 -0.00248174,0.000896431 -0.000710963,0 -0.00128503,-0.000189884 -0.00174429,-0.000574069 -0.000454839,-0.000379769 -0.000680051,-0.000874351 -0.000680051,-0.00147492 0,-0.00166038 0.00142634,-0.00249058 0.00428785,-0.00249058l0.000618228 0c0,-0.00050783 -2.64955e-005,-0.000874351 -7.94865e-005,-0.00110839 -5.74069e-005,-0.000229628 -0.000203132,-0.000419512 -0.000446008,-0.000569653 -0.000251707,-0.000154557 -0.000640308,-0.000229628 -0.00117463,-0.000229628 -0.00112606,0 -0.00170454,0.000401848 -0.00173987,0.00120555l-0.00125854 0c9.27342e-005,-0.00145725 0.00111723,-0.00219029 0.00306465,-0.00219029 0.000909679,0 0.00162064,0.000181053 0.00212847,0.000543158 0.00050783,0.000362105 0.000763953,0.00106865 0.000763953,0.00212847l0 0.00459255 -0.00125854 0 0 -0.000728626zm0.004385 -0.00547132c0.00062706,-0.000706547 0.00133361,-0.00106424 0.00211964,-0.00106424 0.00160298,0 0.00240226,0.000874351 0.00240226,0.00261864l0 0.00464554 -0.00126295 0 0 -0.00459255c0,-0.000578485 -0.000105982,-0.000997997 -0.00031353,-0.0012497 -0.000203132,-0.000256123 -0.000543158,-0.000384185 -0.00101566,-0.000384185 -0.00064914,0 -0.00128945,0.000379769 -0.00192976,0.00113931l0 0.00508714 -0.00126737 0 0 -0.00710079 0.00126737 0 0 0.000900847zm0.0121084 0.00565237c0,0.00228303 -0.00102891,0.00342675 -0.00309556,0.00342675 -0.000887599,0 -0.00159415,-0.0001943 -0.00211081,-0.000582901 -0.000516662,-0.000388601 -0.000772785,-0.000909679 -0.000772785,-0.00156765l0.00130711 0c0,0.000777201 0.000521078,0.0011658 0.00156323,0.0011658 0.000591733,0 0.00104657,-0.000163389 0.00136893,-0.000485751 0.000322362,-0.000322362 0.000481335,-0.000958254 0.000481335,-0.00190326l0 -0.000353273c-0.000560821,0.000675635 -0.00124087,0.00101566 -0.00203132,0.00101566 -0.000927342,0 -0.00164272,-0.000331194 -0.00215497,-0.000989165 -0.00050783,-0.000662387 -0.000763953,-0.00154999 -0.000763953,-0.00267163 0,-0.00116139 0.000287035,-0.0020799 0.000856688,-0.00275553 0.000569653,-0.000675635 0.00128503,-0.00101566 0.00214172,-0.00101566 0.000768369,0 0.00142193,0.000238459 0.00195183,0.000710963l0 -0.000547574 0.00125854 0 0 0.00655322zm-0.00125854 -0.001497l0 -0.00336934c-0.000543158,-0.000578485 -0.00117022,-0.00086552 -0.00186793,-0.00086552 -0.000543158,0 -0.000971502,0.000234044 -0.00129386,0.000702131 -0.000326778,0.000463671 -0.000490167,0.00115697 -0.000490167,0.00208431 0,0.000874351 0.000154557,0.00153674 0.000459255,0.00198716 0.000309114,0.000459255 0.000728626,0.000684467 0.00127178,0.000684467 0.000702131,0 0.00134244,-0.000406264 0.00192092,-0.00122321zm0.00613812 0.00221237c-0.00104657,0 -0.0018856,-0.000326778 -0.00251707,-0.000980333 -0.000631476,-0.000653556 -0.000953838,-0.00156765 -0.000953838,-0.00273787 0,-0.00115697 0.000309114,-0.00206665 0.000922926,-0.00272462 0.000613812,-0.000657972 0.00141751,-0.000989165 0.00240667,-0.000989165 0.00101124,0 0.00181936,0.000326778 0.00242434,0.000971502 0.000604981,0.00064914 0.000909679,0.00156323 0.000909679,0.00274228l0 0.000304698 -0.00534767 0c5.2991e-005,0.00082136 0.000278203,0.00142634 0.000680051,0.00182819 0.000397432,0.000397432 0.000887599,0.000596149 0.00147492,0.000596149 0.000441592,0 0.000839024,-0.000114814 0.0011923,-0.000340026 0.000357689,-0.000225212 0.000543158,-0.000543158 0.000560821,-0.00096267l0.0013027 0c-9.71502e-005,0.000733042 -0.000428344,0.00129828 -0.000993581,0.00169571 -0.000560821,0.000397432 -0.0012497,0.000596149 -0.00206223,0.000596149zm0.0018591 -0.00440708c-0.000101566,-0.000680051 -0.000331194,-0.0011923 -0.000688883,-0.00152791 -0.000357689,-0.000344441 -0.000794865,-0.000512246 -0.00131153,-0.000512246 -0.000503414,0 -0.000936174,0.000167805 -0.00129828,0.000503414 -0.000362105,0.000340026 -0.000591733,0.000852272 -0.000688883,0.00153674l0.00398757 0zm0.038966 -0.019196l-0.0197126 0 0 -0.0025789 0.00119671 0c0.00201807,0 0.0030249,-0.000878767 0.0030249,-0.00264072 0,-0.000441592 -0.00119671,-0.00359014 -0.00359014,-0.00945006l-0.0153674 0c-0.00189001,0.00533001 -0.00283502,0.00827984 -0.00283502,0.00885391 0,0.00140868 0.000419512,0.00233602 0.00126295,0.00277761 0.000587317,0.000309114 0.00161623,0.000459255 0.00308231,0.000459255l0.00151466 0 0 0.0025789 -0.0159989 0 0 -0.0025789 0.0016383 0c0.00289684,0 0.00499882,-0.00182819 0.0062971,-0.00548457l0.011212 -0.0316533 0.00736575 -0.00370495 0.0147359 0.034899c0.00084344,0.00202691 0.00157648,0.00339142 0.00220354,0.00409355 0.00101124,0.00123646 0.0023316,0.00185027 0.00396991,0.00185027l0 0.0025789zm-0.0201542 -0.0172486l-0.00730393 -0.0171823 -0.00610721 0.0171823 0.0134111 0zm-0.0309114 0.00539183l-0.00395224 0.0119848 -0.0388954 0 0 -0.00265397c0.00190768,0 0.00327219,-0.000366521 0.00408914,-0.00109073 0.000816944,-0.000728626 0.00122321,-0.00204457 0.00122321,-0.00395224l0 -0.0289507c0,-0.00299399 -0.00177078,-0.00449099 -0.00531235,-0.00449099l0 -0.00265838 0.0371953 0 0.00476477 0.0123292 -0.00204457 0.000816944c-0.00553756,-0.00699481 -0.0108764,-0.0104878 -0.0160077,-0.0104878l-0.00435851 0c-0.00127178,0 -0.0022477,0.000428344 -0.00292775,0.00129386 -0.000680051,0.000861104 -0.00102008,0.00192976 -0.00102008,0.00319712l0 0.0128768 0.00612929 0c0.00453956,0 0.00680934,-0.00242875 0.00680934,-0.00729068l0.00259214 0 0 0.0173016 -0.00259214 0c0,-0.00490167 -0.00229186,-0.0073525 -0.00688,-0.0073525l-0.00605864 0 0 0.0133493c0,0.00340467 0.00174429,0.00510921 0.00524169,0.00510921l0.00490608 0c0.00508714,0 0.0101699,-0.00345325 0.015257,-0.0103553l0.00184144 0.00102449zm-0.0834387 0.0354377c-0.00138218,0 -0.00241551,-0.000304698 -0.00309997,-0.000927342 -0.000684467,-0.000618228 -0.00104216,-0.00141309 -0.00107748,-0.00238459l0.0012497 0c6.62387e-005,0.000728626 0.000370937,0.00127178 0.000909679,0.00162064 0.000543158,0.000348857 0.00119671,0.000525494 0.00196508,0.000525494 0.000728626,0 0.00131153,-0.000150141 0.00175312,-0.000450423 0.000446008,-0.000295866 0.000666803,-0.000702131 0.000666803,-0.00121438 0,-0.000538742 -0.000229628,-0.000931758 -0.000688883,-0.00117905 -0.000459255,-0.000242875 -0.0012497,-0.000485751 -0.00237135,-0.00072421 -0.00112164,-0.000238459 -0.00192534,-0.000569653 -0.00241109,-0.000993581 -0.000490167,-0.000423928 -0.000733042,-0.000984749 -0.000733042,-0.0016913 0,-0.000794865 0.000317946,-0.001444 0.000953838,-0.00195183 0.000635892,-0.00050783 0.00147492,-0.000763953 0.0025259,-0.000763953 0.00110839,0 0.00200041,0.000256123 0.00267605,0.000772785 0.000680051,0.000512246 0.00103774,0.00123646 0.00107748,0.00217263l-0.00126295 0c-0.000128062,-0.00118788 -0.00094059,-0.00177961 -0.00243317,-0.00177961 -0.00072421,0 -0.00128062,0.000136893 -0.00167805,0.000406264 -0.000397432,0.000273787 -0.000596149,0.000635892 -0.000596149,0.0010819 0,0.000415096 0.000158973,0.000719794 0.000476919,0.000922926 0.000317946,0.000207548 0.000914095,0.000406264 0.00178403,0.000596149 0.000874351,0.0001943 0.00156765,0.000384185 0.00207548,0.000569653 0.000516662,0.000185468 0.000953838,0.000476919 0.00132036,0.000869935 0.000362105,0.000397432 0.000547574,0.000927342 0.000547574,0.00158973 0,0.00084344 -0.00033561,0.00154115 -0.00100683,0.00209756 -0.000671219,0.000560821 -0.00154557,0.000834608 -0.00262305,0.000834608zm0.0148816 -0.000163389l-0.00125854 0 0 -0.00458814c0,-0.000587317 -8.39024e-005,-0.00100683 -0.000256123,-0.00125412 -0.000172221,-0.000251707 -0.000454839,-0.000379769 -0.000852272,-0.000379769 -0.000604981,0 -0.00120996,0.000379769 -0.00179728,0.00113931l0 0.00508272 -0.00125854 0 0 -0.00458814c0,-0.000587317 -8.39024e-005,-0.00100683 -0.000251707,-0.00125412 -0.000167805,-0.000251707 -0.000454839,-0.000379769 -0.000856688,-0.000379769 -0.000609396,0 -0.00120555,0.000379769 -0.00179286,0.00113931l0 0.00508272 -0.00126295 0 0 -0.00709196 0.00126295 0 0 0.000900847c0.000600565,-0.000706547 0.00126295,-0.00106424 0.00198716,-0.00106424 0.00103774,0 0.00170013,0.000428344 0.00198716,0.00128503 0.000472503,-0.000556405 0.000874351,-0.000909679 0.00120555,-0.00105982 0.000326778,-0.000150141 0.00064914,-0.000225212 0.000967086,-0.000225212 0.00145284,0 0.00217705,0.000869935 0.00217705,0.00261422l0 0.00464113zm0.00634126 -0.00186352l0 -0.00157648 -0.00086552 0c-0.00182819,0 -0.00273787,0.000498999 -0.00273787,0.00149258 0,0.000362105 0.000128062,0.000640308 0.000401848,0.000834608 0.000264955,0.000189884 0.000622644,0.00029145 0.0010819,0.00029145 0.000415096,0 0.000816944,-9.27342e-005 0.00120555,-0.000282619 0.000384185,-0.000185468 0.000688883,-0.000441592 0.000914095,-0.000759538zm0 0.00113489c-0.000644724,0.000596149 -0.0014705,0.000892015 -0.00248174,0.000892015 -0.000706547,0 -0.00128503,-0.000189884 -0.00173987,-0.000569653 -0.000454839,-0.000379769 -0.000680051,-0.000874351 -0.000680051,-0.0014705 0,-0.00166038 0.00142634,-0.00249058 0.00428344,-0.00249058l0.000618228 0c0,-0.00050783 -2.64955e-005,-0.000874351 -7.94865e-005,-0.00110398 -5.74069e-005,-0.000234044 -0.000203132,-0.000423928 -0.000450423,-0.000569653 -0.000247291,-0.000154557 -0.000635892,-0.000229628 -0.00117022,-0.000229628 -0.00112164,0 -0.00170013,0.000401848 -0.00173987,0.00120113l-0.00125854 0c9.71502e-005,-0.00145284 0.00111723,-0.00218588 0.00306465,-0.00218588 0.000909679,0 0.00161623,0.000181053 0.00212847,0.000543158 0.000503414,0.000362105 0.000763953,0.00106865 0.000763953,0.00212406l0 0.00458814 -0.00125854 0 0 -0.000728626zm0.00683142 -0.0052152c-0.000176637,-5.2991e-005 -0.00043276,-7.94865e-005 -0.000768369,-7.94865e-005 -0.000640308,0 -0.0011923,0.00033561 -0.00165155,0.00100683l0 0.00501648 -0.00126295 0 0 -0.00709196 0.00126295 0 0 0.000984749c0.00052991,-0.000763953 0.00114814,-0.00114814 0.00184585,-0.00114814 0.000181053,0 0.000370937,1.76637e-005 0.000574069,5.2991e-005l0 0.00125854zm0.00365638 0.00595707c-0.000278203,5.2991e-005 -0.000578485,7.94865e-005 -0.000900847,7.94865e-005 -0.000516662,0 -0.000896431,-9.27342e-005 -0.00113489,-0.000278203 -0.000242875,-0.000185468 -0.000393017,-0.000423928 -0.000450423,-0.000710963 -5.74069e-005,-0.00029145 -8.83183e-005,-0.000684467 -8.83183e-005,-0.00118347l0 -0.00402732 -0.000874351 0 0 -0.000984749 0.000874351 0 0 -0.00176637 0.00125854 0 0 0.00176637 0.00114814 0 0 0.000984749 -0.00114814 0 0 0.00409355c0,0.000485751 6.18228e-005,0.000794865 0.000185468,0.000927342 0.00011923,0.000132477 0.000287035,0.0001943 0.000503414,0.0001943 0.000220796,0 0.000428344,-1.32477e-005 0.00062706,-5.2991e-005l0 0.000958254z"/>
   <rect id="_208258296" class="fil1" width="0.299093" height="0.11964"/>
  </g>
 </g>
</svg>
